<?xml version="1.0" standalone="no"?>
<!DOCTYPE svg PUBLIC "-//W3C//DTD SVG 20010904//EN"
 "http://www.w3.org/TR/2001/REC-SVG-20010904/DTD/svg10.dtd">
<svg version="1.0" xmlns="http://www.w3.org/2000/svg"
 width="700.000000pt" height="700.000000pt" viewBox="0 0 700.000000 700.000000"
 preserveAspectRatio="xMidYMid meet">
<metadata>
Created by potrace 1.11, written by Peter Selinger 2001-2013
</metadata>
<g transform="translate(0.000000,700.000000) scale(0.100000,-0.100000)"
fill="#000000" stroke="none">
<path d="M6085 5285 c-108 -36 -187 -114 -234 -232 l-28 -67 -490 -1 -491 0
-1403 -1405 c-772 -772 -1422 -1420 -1444 -1440 l-41 -35 -439 1 c-242 1 -443
2 -446 3 -4 0 -9 15 -13 32 -22 111 -129 228 -246 268 -121 42 -275 12 -377
-75 -39 -32 -95 -115 -112 -164 -31 -90 -23 -202 20 -298 31 -67 124 -155 196
-183 114 -45 255 -33 358 31 72 44 146 148 160 223 l7 37 477 0 476 0 1440
1440 1440 1440 455 1 c250 0 462 0 470 0 9 -1 16 -10 17 -21 4 -48 57 -141
109 -190 78 -74 149 -104 251 -107 121 -3 204 29 285 110 153 152 153 390 2
541 -40 40 -105 83 -139 93 -110 29 -169 29 -260 -2z m200 -110 c82 -28 132
-73 165 -147 44 -101 24 -205 -55 -284 -59 -59 -115 -82 -195 -79 -202 8 -315
235 -202 407 58 89 189 136 287 103z m-5506 -2887 c51 -16 127 -92 148 -146
50 -133 -4 -267 -137 -338 -51 -26 -161 -25 -216 4 -94 49 -148 135 -147 237
0 95 41 168 121 219 69 43 148 52 231 24z"/>
</g>
</svg>
