<?xml version="1.0" standalone="no"?>
<!DOCTYPE svg PUBLIC "-//W3C//DTD SVG 20010904//EN"
 "http://www.w3.org/TR/2001/REC-SVG-20010904/DTD/svg10.dtd">
<svg version="1.0" xmlns="http://www.w3.org/2000/svg"
 width="1000.000000pt" height="1000.000000pt" viewBox="0 0 1000.000000 1000.000000"
 preserveAspectRatio="xMidYMid meet">
<metadata>
Created by potrace 1.11, written by Peter Selinger 2001-2013
</metadata>
<g transform="translate(0.000000,1000.000000) scale(0.100000,-0.100000)"
fill="#000000" stroke="none">
<path d="M0 5000 l0 -5000 5000 0 5000 0 0 5000 0 5000 -5000 0 -5000 0 0
-5000z m7163 4445 c90 -31 154 -73 226 -150 283 -303 131 -801 -276 -905 l-43
-11 0 -707 0 -707 -2055 -2055 -2055 -2055 0 -640 0 -640 73 -22 c227 -69 387
-288 387 -529 0 -242 -184 -473 -421 -529 -457 -107 -830 368 -618 788 46 90
154 194 249 240 41 19 92 39 112 42 l38 7 0 677 0 676 2060 2060 2060 2060 0
667 0 667 -42 11 c-114 29 -190 73 -270 158 -30 31 -66 77 -80 102 -96 166
-96 385 0 550 32 56 114 143 170 182 136 94 322 118 485 63z"/>
<path d="M6865 9279 c-236 -83 -329 -360 -190 -564 41 -60 87 -98 163 -133 49
-23 70 -27 147 -27 80 0 97 3 155 31 36 17 85 51 109 75 24 24 58 73 75 109
28 58 31 75 31 155 0 80 -3 97 -31 155 -17 36 -50 85 -73 108 -96 98 -258 136
-386 91z"/>
<path d="M2737 1381 c-166 -67 -267 -244 -237 -413 44 -242 291 -377 517 -283
181 75 273 291 203 478 -28 76 -112 167 -188 204 -76 37 -221 44 -295 14z"/>
</g>
</svg>
